<svg width="24" height="25" viewBox="0 0 24 25" fill="none" xmlns="http://www.w3.org/2000/svg">
<path fill-rule="evenodd" clip-rule="evenodd" d="M8 2.5C8.55228 2.5 9 2.94772 9 3.5V4.5H15V3.5C15 2.94772 15.4477 2.5 16 2.5C16.5523 2.5 17 2.94772 17 3.5V4.5H19C20.6569 4.5 22 5.84315 22 7.5V19.5C22 21.1569 20.6569 22.5 19 22.5H5C3.34315 22.5 2 21.1569 2 19.5V7.5C2 5.84315 3.34315 4.5 5 4.5H7V3.5C7 2.94772 7.44772 2.5 8 2.5ZM7 6.5H5C4.44772 6.5 4 6.94772 4 7.5V19.5C4 20.0523 4.44772 20.5 5 20.5H19C19.5523 20.5 20 20.0523 20 19.5V7.5C20 6.94772 19.5523 6.5 19 6.5H17V7.5C17 8.05228 16.5523 8.5 16 8.5C15.4477 8.5 15 8.05228 15 7.5V6.5H9V7.5C9 8.05228 8.55228 8.5 8 8.5C7.44772 8.5 7 8.05228 7 7.5V6.5ZM6 11.5C6 10.9477 6.44772 10.5 7 10.5H17C17.5523 10.5 18 10.9477 18 11.5C18 12.0523 17.5523 12.5 17 12.5H7C6.44772 12.5 6 12.0523 6 11.5Z" fill="#4B5563"/>
</svg>
