<svg width="25" height="25" viewBox="0 0 25 25" fill="none" xmlns="http://www.w3.org/2000/svg">
<path fill-rule="evenodd" clip-rule="evenodd" d="M12.7461 4.78125C8.32782 4.78125 4.74609 8.36297 4.74609 12.7812C4.74609 17.1995 8.32782 20.7812 12.7461 20.7812C17.1644 20.7812 20.7461 17.1995 20.7461 12.7812C20.7461 8.36297 17.1644 4.78125 12.7461 4.78125ZM2.74609 12.7812C2.74609 7.2584 7.22325 2.78125 12.7461 2.78125C18.2689 2.78125 22.7461 7.2584 22.7461 12.7812C22.7461 18.3041 18.2689 22.7812 12.7461 22.7812C7.22325 22.7812 2.74609 18.3041 2.74609 12.7812ZM16.4532 10.0741C16.8437 10.4647 16.8437 11.0978 16.4532 11.4884L12.4532 15.4884C12.0627 15.8789 11.4295 15.8789 11.039 15.4884L9.03899 13.4884C8.64846 13.0978 8.64846 12.4647 9.03899 12.0741C9.42951 11.6836 10.0627 11.6836 10.4532 12.0741L11.7461 13.367L15.039 10.0741C15.4295 9.68362 16.0627 9.68362 16.4532 10.0741Z" fill="#14B8A6"/>
</svg>
