<svg width="48" height="48" viewBox="0 0 48 48" fill="none" xmlns="http://www.w3.org/2000/svg">
<g clip-path="url(#clip0_192346_36254)">
<path d="M33.2885 15.5282C33.2885 15.2925 33.0957 15.0996 32.86 15.0996L29.3242 15.1157L23.9992 21.4639L18.6796 15.121L15.1385 15.105C14.9028 15.105 14.71 15.2925 14.71 15.5335C14.71 15.6353 14.7475 15.7318 14.8117 15.8121L21.7814 24.1157L14.8117 32.4139C14.747 32.4924 14.7111 32.5907 14.71 32.6925C14.71 32.9282 14.9028 33.121 15.1385 33.121L18.6796 33.105L23.9992 26.7568L29.3189 33.0996L32.8546 33.1157C33.0903 33.1157 33.2832 32.9282 33.2832 32.6871C33.2832 32.5853 33.2457 32.4889 33.1814 32.4085L26.2225 24.1103L33.1921 15.8068C33.2564 15.7318 33.2885 15.63 33.2885 15.5282Z" fill="#FF4D4F"/>
<path d="M24 0C10.7464 0 0 10.7464 0 24C0 37.2536 10.7464 48 24 48C37.2536 48 48 37.2536 48 24C48 10.7464 37.2536 0 24 0ZM24 43.9286C12.9964 43.9286 4.07143 35.0036 4.07143 24C4.07143 12.9964 12.9964 4.07143 24 4.07143C35.0036 4.07143 43.9286 12.9964 43.9286 24C43.9286 35.0036 35.0036 43.9286 24 43.9286Z" fill="#FF4D4F"/>
</g>
<defs>
<clipPath id="clip0_192346_36254">
<rect width="48" height="48" fill="white"/>
</clipPath>
</defs>
</svg>
