<svg width="15" height="14" viewBox="0 0 15 14" fill="none" xmlns="http://www.w3.org/2000/svg">
<path fill-rule="evenodd" clip-rule="evenodd" d="M0.673753 0.292893C1.06428 -0.0976311 1.69744 -0.0976311 2.08797 0.292893L7.38086 5.58579L12.6738 0.292894C13.0643 -0.0976305 13.6974 -0.0976305 14.088 0.292894C14.4785 0.683418 14.4785 1.31658 14.088 1.70711L8.79507 7L14.088 12.2929C14.4785 12.6834 14.4785 13.3166 14.088 13.7071C13.6974 14.0976 13.0643 14.0976 12.6738 13.7071L7.38086 8.41421L2.08797 13.7071C1.69744 14.0976 1.06428 14.0976 0.673753 13.7071C0.283228 13.3166 0.283228 12.6834 0.673753 12.2929L5.96665 7L0.673753 1.70711C0.283228 1.31658 0.283228 0.683417 0.673753 0.292893Z" fill="#6B7280"/>
</svg>
