<svg width="48" height="48" viewBox="0 0 48 48" fill="none" xmlns="http://www.w3.org/2000/svg">
<g clip-path="url(#clip0_192346_8418)">
<path d="M24 0C10.7464 0 0 10.7464 0 24C0 37.2536 10.7464 48 24 48C37.2536 48 48 37.2536 48 24C48 10.7464 37.2536 0 24 0ZM24 43.9286C12.9964 43.9286 4.07143 35.0036 4.07143 24C4.07143 12.9964 12.9964 4.07143 24 4.07143C35.0036 4.07143 43.9286 12.9964 43.9286 24C43.9286 35.0036 35.0036 43.9286 24 43.9286Z" fill="#FFC53D"/>
<path d="M21.4277 33.4286C21.4277 34.1106 21.6987 34.7646 22.1809 35.2468C22.6631 35.7291 23.3172 36 23.9992 36C24.6811 36 25.3352 35.7291 25.8174 35.2468C26.2997 34.7646 26.5706 34.1106 26.5706 33.4286C26.5706 32.7466 26.2997 32.0925 25.8174 31.6103C25.3352 31.1281 24.6811 30.8571 23.9992 30.8571C23.3172 30.8571 22.6631 31.1281 22.1809 31.6103C21.6987 32.0925 21.4277 32.7466 21.4277 33.4286ZM22.7134 27.4286H25.2849C25.5206 27.4286 25.7134 27.2357 25.7134 27V12.4286C25.7134 12.1929 25.5206 12 25.2849 12H22.7134C22.4777 12 22.2849 12.1929 22.2849 12.4286V27C22.2849 27.2357 22.4777 27.4286 22.7134 27.4286Z" fill="#FFC53D"/>
</g>
<defs>
<clipPath id="clip0_192346_8418">
<rect width="48" height="48" fill="white"/>
</clipPath>
</defs>
</svg>
