<svg width="254" height="294" viewBox="0 0 254 294" fill="none" xmlns="http://www.w3.org/2000/svg">
<path fill-rule="evenodd" clip-rule="evenodd" d="M0 129.071V126.987C0 58.3858 56.3869 2.77504 125.943 2.77504H128.057C197.613 2.77504 254 58.3858 254 126.987V129.071C254 197.672 197.614 253.284 128.057 253.284H125.943C56.3869 253.284 0 197.672 0 129.071Z" fill="#E4EBF7"/>
<path fill-rule="evenodd" clip-rule="evenodd" d="M42.0101 132.97C41.9002 134.046 41.5765 135.09 41.0575 136.042C40.5385 136.995 39.8343 137.837 38.9852 138.521C38.1361 139.206 37.1587 139.718 36.1087 140.03C35.0588 140.341 33.9569 140.446 32.866 140.338C31.7751 140.229 30.7165 139.91 29.7506 139.398C28.7848 138.886 27.9307 138.192 27.237 137.354C26.5433 136.517 26.0236 135.553 25.7077 134.517C25.3917 133.482 25.2857 132.395 25.3956 131.319C25.6175 129.146 26.7056 127.149 28.4204 125.768C30.1353 124.386 32.3364 123.733 34.5396 123.951C36.7428 124.17 38.7677 125.243 40.1686 126.935C41.5696 128.626 42.232 130.797 42.0101 132.97Z" fill="white"/>
<path d="M50.7047 148.561L37.9446 159.295M39.2054 136.411L49.7796 142.323L39.2054 136.411Z" stroke="white" stroke-width="2"/>
<path fill-rule="evenodd" clip-rule="evenodd" d="M42.1306 161.34C42.0554 162.077 41.8337 162.792 41.4783 163.444C41.1229 164.096 40.6408 164.673 40.0593 165.142C39.4779 165.61 38.8086 165.961 38.0897 166.174C37.3708 166.388 36.6163 166.459 35.8693 166.385C35.1223 166.311 34.3974 166.092 33.7361 165.742C33.0747 165.391 32.4899 164.916 32.0149 164.342C31.5399 163.769 31.1841 163.109 30.9678 162.4C30.7514 161.691 30.6788 160.947 30.7541 160.21C30.9061 158.722 31.6511 157.355 32.8254 156.409C33.9996 155.462 35.5068 155.015 37.0154 155.165C38.5241 155.315 39.9105 156.05 40.8698 157.208C41.8291 158.366 42.2826 159.852 42.1306 161.34ZM60.0009 145.315C59.9251 146.057 59.7018 146.777 59.3439 147.434C58.9859 148.091 58.5003 148.672 57.9147 149.144C57.3291 149.616 56.6549 149.97 55.9308 150.184C55.2067 150.399 54.4467 150.472 53.6944 150.397C52.942 150.322 52.2119 150.102 51.5458 149.749C50.8796 149.396 50.2905 148.917 49.8121 148.339C49.3337 147.762 48.9753 147.097 48.7574 146.383C48.5395 145.668 48.4663 144.919 48.5421 144.177C48.6952 142.678 49.4456 141.301 50.6283 140.348C51.811 139.395 53.3291 138.945 54.8486 139.096C56.3682 139.246 57.7646 139.987 58.7309 141.153C59.6971 142.319 60.1539 143.817 60.0009 145.315ZM101.797 29.527L131.881 29.514C133.109 29.5135 134.286 29.0321 135.154 28.1757C136.021 27.3192 136.508 26.158 136.508 24.9473C136.507 23.7367 136.019 22.5759 135.151 21.7202C134.282 20.8645 133.105 20.3841 131.877 20.3846L101.793 20.3976C101.185 20.398 100.583 20.5164 100.022 20.7461C99.4603 20.9758 98.9503 21.3123 98.5207 21.7364C97.6532 22.5929 97.1663 23.7542 97.1669 24.9648C97.1676 26.1755 97.6559 27.3363 98.5243 28.1918C99.3928 29.0474 100.57 29.5277 101.798 29.527H101.797ZM113.304 47.7719L143.388 47.7589C144.615 47.7583 145.792 47.2769 146.66 46.4205C147.528 45.5641 148.015 44.4028 148.014 43.1922C148.014 41.9815 147.525 40.8207 146.657 39.965C145.789 39.1093 144.611 38.6289 143.384 38.6295L113.299 38.6425C112.691 38.6428 112.09 38.7612 111.528 38.9909C110.967 39.2206 110.457 39.5571 110.027 39.9812C109.16 40.8377 108.673 41.999 108.673 43.2097C108.674 44.4203 109.162 45.5811 110.031 46.4367C110.899 47.2922 112.077 47.7725 113.304 47.7719Z" fill="white"/>
<path fill-rule="evenodd" clip-rule="evenodd" d="M115.699 29.514V29.511L131.622 29.504C130.394 29.5046 129.217 29.986 128.35 30.8424C127.482 31.6988 126.995 32.8601 126.995 34.0707C126.996 35.2814 127.484 36.4422 128.352 37.2979C129.221 38.1536 130.398 38.634 131.626 38.6335L115.703 38.6405V38.6385C116.913 38.6129 118.065 38.1208 118.912 37.2674C119.758 36.4141 120.232 35.2676 120.231 34.0738C120.231 32.88 119.756 31.7339 118.909 30.8813C118.062 30.0287 116.909 29.5375 115.699 29.513V29.514ZM188.059 137.775C187.501 143.232 182.564 147.21 177.031 146.66C171.497 146.11 167.464 141.24 168.021 135.783C168.579 130.326 173.517 126.347 179.05 126.897C184.583 127.448 188.617 132.318 188.059 137.775Z" fill="white"/>
<path d="M196.616 158.479L181.228 171.424M182.749 143.826L195.501 150.957L182.749 143.826Z" stroke="white" stroke-width="2"/>
<path fill-rule="evenodd" clip-rule="evenodd" d="M188.206 171.99C188.023 173.785 187.124 175.434 185.708 176.575C184.292 177.716 182.474 178.256 180.654 178.075C178.835 177.894 177.162 177.008 176.005 175.611C174.848 174.214 174.301 172.421 174.485 170.627C174.683 168.844 175.587 167.21 177 166.082C178.413 164.953 180.221 164.421 182.03 164.601C183.84 164.78 185.504 165.658 186.66 167.042C187.817 168.426 188.372 170.204 188.205 171.99H188.206ZM207.042 155.343C206.857 157.151 205.952 158.812 204.525 159.961C203.098 161.111 201.267 161.654 199.434 161.471C197.601 161.289 195.917 160.396 194.751 158.989C193.586 157.581 193.035 155.775 193.22 153.968C193.423 152.175 194.336 150.533 195.759 149.4C197.182 148.266 199.001 147.732 200.821 147.913C202.641 148.094 204.315 148.976 205.479 150.367C206.644 151.758 207.205 153.546 207.041 155.343" fill="white"/>
<path fill-rule="evenodd" clip-rule="evenodd" d="M155.178 194.147C155.178 194.733 154.942 195.295 154.522 195.71C154.101 196.125 153.531 196.358 152.936 196.358C152.342 196.358 151.772 196.125 151.351 195.71C150.931 195.295 150.695 194.733 150.695 194.147C150.695 193.56 150.931 192.998 151.351 192.583C151.772 192.169 152.342 191.936 152.936 191.936C153.531 191.936 154.101 192.169 154.522 192.583C154.942 192.998 155.178 193.56 155.178 194.147ZM229.165 118.261C229.165 118.848 228.929 119.41 228.509 119.825C228.088 120.24 227.518 120.473 226.923 120.473C226.329 120.473 225.758 120.24 225.338 119.825C224.917 119.41 224.681 118.848 224.681 118.261C224.681 117.675 224.917 117.112 225.338 116.698C225.758 116.283 226.329 116.05 226.923 116.05C227.518 116.05 228.088 116.283 228.509 116.698C228.929 117.112 229.165 117.675 229.165 118.261V118.261ZM220.198 153.108C220.198 153.695 219.962 154.257 219.541 154.672C219.121 155.087 218.55 155.32 217.956 155.32C217.361 155.32 216.791 155.087 216.37 154.672C215.95 154.257 215.714 153.695 215.714 153.108C215.714 152.522 215.95 151.96 216.37 151.545C216.79 151.13 217.361 150.898 217.955 150.898C218.55 150.898 219.12 151.13 219.54 151.545C219.961 151.96 220.197 152.522 220.197 153.108H220.198ZM180.386 109.883C180.386 110.47 180.15 111.032 179.729 111.447C179.308 111.862 178.738 112.095 178.143 112.095C177.548 112.095 176.978 111.862 176.557 111.447C176.137 111.032 175.901 110.47 175.901 109.883C175.901 109.297 176.137 108.734 176.557 108.32C176.978 107.905 177.548 107.672 178.143 107.672C178.737 107.672 179.308 107.905 179.728 108.32C180.149 108.734 180.385 109.297 180.385 109.883H180.386ZM198.922 94.4894C198.922 95.0759 198.685 95.6383 198.265 96.053C197.844 96.4678 197.274 96.7007 196.679 96.7007C196.085 96.7007 195.514 96.4678 195.094 96.053C194.673 95.6383 194.437 95.0759 194.437 94.4894C194.437 93.9029 194.673 93.3405 195.094 92.9258C195.514 92.5111 196.085 92.2781 196.679 92.2781C197.274 92.2781 197.844 92.5111 198.265 92.9258C198.685 93.3405 198.922 93.9029 198.922 94.4894ZM205.748 182.591C205.748 182.882 205.69 183.169 205.577 183.437C205.465 183.706 205.299 183.949 205.091 184.155C204.883 184.36 204.636 184.523 204.364 184.634C204.092 184.745 203.801 184.802 203.506 184.802C203.212 184.802 202.92 184.745 202.648 184.634C202.376 184.523 202.129 184.36 201.921 184.155C201.713 183.949 201.548 183.706 201.435 183.437C201.323 183.169 201.265 182.882 201.265 182.591C201.265 182.005 201.501 181.443 201.921 181.028C202.342 180.613 202.912 180.381 203.506 180.381C204.101 180.381 204.671 180.613 205.091 181.028C205.512 181.443 205.748 182.005 205.748 182.591Z" stroke="white" stroke-width="2"/>
<path d="M224.681 119.449L211.728 127.311L196.282 119.448V96.7042M218.205 155.32L216.276 175.403L205.25 181.363L218.205 155.32ZM177.101 176.702L170.688 186.467H159.227L154.679 192.918L177.101 176.702ZM178.392 127.328V111.602V127.328Z" stroke="white" stroke-width="2"/>
<path fill-rule="evenodd" clip-rule="evenodd" d="M183.267 29.331C183.267 13.1329 196.581 0 213.006 0C229.431 0 242.746 13.1319 242.746 29.331C242.746 45.531 229.431 58.6639 213.006 58.6639C196.582 58.6639 183.267 45.53 183.267 29.331Z" fill="#642AB5"/>
<path fill-rule="evenodd" clip-rule="evenodd" d="M224.62 41.7216L202.749 41.5966C202.516 41.5953 202.287 41.5488 202.072 41.4599C201.858 41.371 201.664 41.2414 201.501 41.0785C201.337 40.9156 201.208 40.7225 201.121 40.5103C201.033 40.2981 200.988 40.071 200.99 39.8419L201.062 27.6073C201.063 27.3782 201.11 27.1516 201.2 26.9404C201.29 26.7293 201.422 26.5377 201.587 26.3766C201.752 26.2155 201.948 26.0881 202.163 26.0016C202.378 25.9152 202.609 25.8714 202.841 25.8727L224.712 25.9977C225.689 26.0037 226.477 26.789 226.471 27.7534L226.399 39.987C226.398 40.2161 226.351 40.4427 226.261 40.6539C226.171 40.865 226.039 41.0566 225.874 41.2177C225.709 41.3788 225.513 41.5062 225.298 41.5926C225.083 41.6791 224.853 41.7229 224.62 41.7216Z" fill="white"/>
<path fill-rule="evenodd" clip-rule="evenodd" d="M218.186 29.2029C218.17 31.7809 216.107 33.8587 213.577 33.8447C211.048 33.8307 209.009 31.7289 209.024 29.1499L209.065 22.2223C209.081 19.6444 211.144 17.5666 213.673 17.5806C216.203 17.5956 218.241 19.6974 218.227 22.2753L218.187 29.2029H218.186ZM213.591 15.1237C211.741 15.1133 209.963 15.828 208.647 17.1107C207.331 18.3933 206.586 20.1388 206.576 21.9632L206.532 29.334C206.527 30.2374 206.702 31.133 207.047 31.9697C207.393 32.8064 207.902 33.5677 208.546 34.2103C209.847 35.508 211.617 36.243 213.467 36.2536C215.317 36.2642 217.095 35.5495 218.411 34.2669C219.727 32.9842 220.472 31.2386 220.483 29.414L220.526 22.0433C220.536 20.2187 219.811 18.4648 218.511 17.1672C217.21 15.8696 215.441 15.1345 213.591 15.1237ZM169.965 68.3926H165.979C164.711 68.3892 163.496 67.8909 162.599 67.0067C161.703 66.1225 161.198 64.9243 161.194 63.6738C161.198 62.4234 161.703 61.2251 162.599 60.3409C163.496 59.4567 164.711 58.9585 165.979 58.9551H169.965C171.233 58.9585 172.448 59.4567 173.344 60.3409C174.241 61.2251 174.746 62.4234 174.749 63.6738C174.746 64.9243 174.241 66.1225 173.344 67.0067C172.448 67.8909 171.233 68.3892 169.965 68.3926Z" fill="white"/>
<path fill-rule="evenodd" clip-rule="evenodd" d="M170.622 248.931C168.844 248.931 167.139 248.234 165.881 246.994C164.624 245.753 163.918 244.071 163.918 242.318V176.185C163.939 174.445 164.655 172.784 165.91 171.561C167.165 170.338 168.859 169.653 170.623 169.653C172.387 169.653 174.08 170.338 175.335 171.561C176.59 172.784 177.306 174.445 177.328 176.185V242.318C177.328 244.071 176.621 245.753 175.364 246.993C174.106 248.233 172.401 248.93 170.623 248.93" fill="#5BA02E"/>
<path fill-rule="evenodd" clip-rule="evenodd" d="M178.669 248.269C176.891 248.269 175.185 247.572 173.928 246.332C172.671 245.092 171.964 243.41 171.964 241.656V208.59C171.953 207.715 172.119 206.846 172.451 206.034C172.783 205.223 173.275 204.484 173.899 203.861C174.522 203.238 175.265 202.744 176.084 202.406C176.903 202.069 177.782 201.895 178.669 201.895C179.557 201.895 180.436 202.069 181.254 202.406C182.073 202.744 182.816 203.238 183.44 203.861C184.064 204.484 184.556 205.223 184.888 206.034C185.22 206.846 185.385 207.715 185.374 208.59V241.655C185.374 243.409 184.668 245.091 183.411 246.331C182.153 247.572 180.448 248.269 178.67 248.269" fill="#92C110"/>
<path fill-rule="evenodd" clip-rule="evenodd" d="M188.657 294H160.889C160.036 294 159.218 293.666 158.615 293.071C158.012 292.476 157.673 291.67 157.673 290.829V244.925C157.673 244.084 158.012 243.277 158.615 242.682C159.218 242.088 160.036 241.753 160.889 241.753H188.657C189.509 241.753 190.327 242.088 190.93 242.682C191.533 243.277 191.872 244.084 191.872 244.925V290.828C191.872 291.669 191.533 292.475 190.93 293.07C190.327 293.665 189.509 293.999 188.657 293.999" fill="#F2D7AD"/>
<path fill-rule="evenodd" clip-rule="evenodd" d="M83.1456 147.728C83.1456 147.728 89.6139 146.801 100.963 146.448C112.86 146.077 118.785 147.534 118.785 147.534C118.785 147.534 122.535 143.678 119.767 139.107C121.063 127.025 125.834 106.268 120.106 90.8159C118.974 89.4764 116.31 89.3034 112.462 90.1957C111.106 90.5108 105.213 90.0466 104.365 90.0957L88.8349 89.7485C88.8349 89.7485 85.298 89.5785 80.6849 89.2403C79.1513 89.1273 76.3974 87.5567 75.1488 88.9022C74.737 89.3454 72.6891 94.5733 73.1506 104.985L81.9092 140.641C81.9092 140.641 78.7232 144.252 83.1456 147.728Z" fill="white"/>
<path fill-rule="evenodd" clip-rule="evenodd" d="M76.8528 73.3525L75.9399 66.9531L88.0935 60.4306C88.0935 60.4306 95.5 60.3126 96.2466 61.6361C96.9941 62.9606 90.5502 62.6294 90.5502 62.6294C90.5502 62.6294 88.6879 64.018 87.8977 65.1304C86.22 67.4943 86.8976 71.6038 79.4606 71.1186C77.7282 71.4027 76.8538 73.3525 76.8538 73.3525" fill="#FFC6A0"/>
<path fill-rule="evenodd" clip-rule="evenodd" d="M53.1907 77.7011C53.1907 77.7011 67.6113 87.1106 78.5213 92.1505C79.5975 92.6477 76.3973 108.34 66.459 103.966C58.9166 100.647 46.0084 95.5227 44.6695 89.4645C43.9493 86.2052 47.2489 81.8186 53.1907 77.7001V77.7011ZM143.893 80.143C143.893 80.143 137.104 83.1431 129.851 87.0216C125.901 89.1323 119.569 91.7273 117.344 95.0125C111.031 104.33 120.931 106.237 130.477 102.518C137.283 99.8664 159.891 90.3868 143.893 80.143Z" fill="#FFB594"/>
<path fill-rule="evenodd" clip-rule="evenodd" d="M77.2564 66.3848L80.3602 70.2673C80.3602 70.2673 77.5374 72.9383 73.9599 76.0164C66.7552 82.2138 60.9736 90.3178 57.7359 92.4626C53.7131 95.1256 47.8423 95.7778 45.3846 92.3445C41.7807 87.3107 45.8552 77.7111 77.2564 66.3848Z" fill="#FFC6A0"/>
<path fill-rule="evenodd" clip-rule="evenodd" d="M65.5999 85.1479C65.5999 85.1479 63.2264 93.564 56.5603 99.6003C57.2216 100.148 75.4124 110.114 79.0213 109.66C84.3343 108.991 85.5302 90.6849 80.1827 89.1213C79.4707 88.9133 74.1972 87.8349 71.203 86.9535C70.3205 86.6934 69.5689 85.2429 67.6072 86.0172L65.5989 85.1479H65.5999ZM130.2 85.8581C130.2 85.8581 135.594 87.8148 137.63 99.5973C137.076 99.8714 119.828 111.952 115.488 107.405C108.86 100.463 114.711 90.0057 119.824 88.7882C124.537 87.6668 124.926 87.4177 130.201 85.8581" fill="white"/>
<path d="M79.2993 94.6914C79.2993 94.6914 80.2233 102.104 74.3149 107.774" stroke="#E4EBF7" stroke-width="1.051" stroke-linecap="round" stroke-linejoin="round"/>
<path d="M88.6482 94.7154C88.6482 94.7154 91.8169 97.2884 99.0581 97.2884C106.3 97.2884 108.262 93.8501 108.262 93.8501" stroke="#E4EBF7" stroke-width="0.932" stroke-linecap="round" stroke-linejoin="round"/>
<path fill-rule="evenodd" clip-rule="evenodd" d="M118.862 68.6647L111.984 62.4854C111.984 62.4854 106.552 58.1698 102.629 61.592C98.7062 65.0153 107.155 63.6758 108.362 65.7586C109.569 67.8414 109.223 66.902 106.25 66.2048C100.566 64.8733 104.138 67.0981 109.267 71.5618C111.388 73.4075 116.359 72.5171 116.359 72.5171L118.862 68.6647Z" fill="#FFC6A0"/>
<path fill-rule="evenodd" clip-rule="evenodd" d="M106.789 91.3492L106.488 80.4081L90.3421 80.3811L89.8045 90.835C89.7782 91.2381 89.977 91.6233 90.3269 91.8344C92.4052 93.0858 99.8483 96.9293 106.352 92.2585C106.643 92.0484 106.801 91.7043 106.789 91.3482" fill="#FFB594"/>
<path fill-rule="evenodd" clip-rule="evenodd" d="M109.113 74.2678C109.942 73.1203 110.109 65.1464 110.143 62.3353C110.146 62.0697 110.046 61.8129 109.865 61.6169C109.683 61.421 109.432 61.3005 109.164 61.2799L104.478 60.9148C96.6572 59.8704 87.1622 61.539 85.9633 67.2632C80.4028 73.0783 85.5363 80.5121 85.5363 80.5121C85.5363 80.5121 87.5274 84.0795 89.9029 87.3057C90.6697 88.347 90.3066 83.5733 92.9864 81.3744C98.5895 76.7787 109.113 74.2688 109.113 74.2688" fill="#5C2552"/>
<path fill-rule="evenodd" clip-rule="evenodd" d="M89.6919 83.2371C89.6919 83.2371 92.4154 89.4415 101.46 89.7616C109.392 90.0417 110.561 82.751 109 72.25L108.078 66.765C101.873 63.8669 92.3788 67.3052 92.3788 67.3052C92.3788 67.3052 91.7946 69.3499 92.1861 72.8112C89.8776 74.878 90.336 78.4313 90.336 78.4313C90.336 78.4313 89.4181 76.5086 88.3277 76.1095C87.4554 75.7894 86.4035 76.1985 85.9724 78.0902C84.9175 82.7239 89.6919 83.2371 89.6919 83.2371Z" fill="#FFC6A0"/>
<path d="M102.287 77.1279L104.012 76.1995L102.983 71.8739L103.666 70.4674" stroke="#DB836E" stroke-width="1.145" stroke-linecap="round" stroke-linejoin="round"/>
<path fill-rule="evenodd" clip-rule="evenodd" d="M107.057 74.1197C107.035 74.833 106.599 75.3992 106.083 75.3832C105.566 75.3672 105.166 74.776 105.189 74.0627C105.21 73.3494 105.647 72.7842 106.162 72.7992C106.68 72.8152 107.079 73.4065 107.057 74.1197ZM98.9892 74.3768C98.9668 75.0901 98.5307 75.6553 98.0144 75.6403C97.4981 75.6243 97.0974 75.0331 97.1198 74.3198C97.1421 73.6065 97.5782 73.0403 98.0945 73.0563C98.6118 73.0723 99.0115 73.6626 98.9892 74.3768Z" fill="#552950"/>
<path d="M92.4367 86.8185C92.4367 86.8185 97.7811 91.7773 105.297 89.1463" stroke="#DB836E" stroke-width="1.145" stroke-linecap="round" stroke-linejoin="round"/>
<path fill-rule="evenodd" clip-rule="evenodd" d="M101.204 81.9337C101.204 81.9337 97.561 82.1657 99.7438 79.1426C101.357 77.646 104.711 78.6824 104.711 78.6824C104.711 78.6824 105.883 82.5899 101.204 81.9337Z" fill="#DB836E"/>
<path d="M95.2271 72.0014C95.2271 72.0014 97.7547 70.8574 100.073 70.9284M104.353 70.6264C104.353 70.6264 106.871 71.4664 107.804 71.3414L104.353 70.6264Z" stroke="#5C2552" stroke-width="1.526" stroke-linecap="round" stroke-linejoin="round"/>
<path d="M100.759 83.7503C100.759 83.7503 102.697 83.9014 103.304 83.4962M87.5557 77.403C87.5557 77.403 88.5304 78.2823 89.0345 79.5097C88.6521 79.9899 87.9867 80.6622 88.7952 81.3194L87.5557 77.403Z" stroke="#DB836E" stroke-width="1.145" stroke-linecap="round" stroke-linejoin="round"/>
<path d="M101.599 115.864L111.783 113.856M89.0388 115.864L104.994 112.851L89.0388 115.864Z" stroke="#E4EBF7" stroke-width="1.051" stroke-linecap="round" stroke-linejoin="round"/>
<path d="M67.4601 86.7955C67.4601 86.7955 65.8393 95.6288 60.6673 100.879" stroke="#E4EBF7" stroke-width="1.114" stroke-linecap="round" stroke-linejoin="round"/>
<path d="M130.147 87.9669C130.147 87.9669 133.203 92.0894 134.265 99.7563" stroke="#E4EBF7" stroke-width="1.051" stroke-linecap="round" stroke-linejoin="round"/>
<path d="M65.0075 84.8477C65.0075 84.8477 58.8912 94.7635 51.2057 94.7544" stroke="#DB836E" stroke-width="0.795" stroke-linecap="round" stroke-linejoin="round"/>
<path fill-rule="evenodd" clip-rule="evenodd" d="M113.975 65.9337L113.831 71.2557C113.831 71.2557 119.909 75.7293 125.947 80.4611C130.493 84.0244 134.962 87.9189 137.089 89.1263C141.962 91.8934 146.116 92.4826 148.323 90.935C152.453 88.0399 152.759 81.0533 140.071 75.6663C135.739 73.8276 123.696 69.3039 113.975 65.9327" fill="#FFC6A0"/>
<path d="M132.401 85.52C132.401 85.52 137.054 91.2791 144.186 91.7363" stroke="#DB836E" stroke-width="0.75" stroke-linecap="round" stroke-linejoin="round"/>
<path d="M123.45 105.77C123.45 105.77 123.052 114.337 122.091 119.387" stroke="#E4EBF7" stroke-width="1.051" stroke-linecap="round" stroke-linejoin="round"/>
<path d="M117.442 161.572C117.442 161.572 113.82 160.084 114.725 154.43" stroke="#648BD8" stroke-width="1.051" stroke-linecap="round" stroke-linejoin="round"/>
<path fill-rule="evenodd" clip-rule="evenodd" d="M102.973 290.355C102.973 290.355 107.361 292.412 110.487 291.385C113.37 290.437 115.117 292.058 117.722 292.571C120.328 293.086 124.746 293.68 129.662 291.302C129.557 285.749 122.624 287.29 117.442 284.536C114.823 283.146 113.575 279.778 113.765 275.67H104.158C104.158 275.67 102.736 286.27 102.972 290.356" fill="#CBD1D1"/>
<path fill-rule="evenodd" clip-rule="evenodd" d="M102.949 290.182C102.949 290.182 105.431 291.463 109.856 290.84C112.981 290.4 113.649 291.325 117.442 291.879C121.234 292.433 128.398 291.809 129.522 290.979C129.943 292.087 129.17 293.057 129.17 293.057C129.17 293.057 127.625 293.665 124.254 293.888C122.179 294.025 118.327 294.181 116.481 293.381C114.655 291.995 111.119 291.463 110.628 293.138C106.625 294.096 103.112 292.85 103.112 292.85L102.95 290.182H102.949Z" fill="#2B0849"/>
<path fill-rule="evenodd" clip-rule="evenodd" d="M110.382 276.293H113.542C113.542 276.293 113.438 283.047 118.178 284.917C113.438 285.541 109.434 282.596 110.382 276.293Z" fill="#A4AABA"/>
<path fill-rule="evenodd" clip-rule="evenodd" d="M58.4753 272.622C58.4753 272.622 56.323 280.095 53.8927 285.023C52.0557 288.748 49.5767 292.573 59.4765 292.573C66.2704 292.573 68.6256 292.09 67.0625 285.923C65.4995 279.757 67.3344 272.622 67.3344 272.622H58.4753Z" fill="#CBD1D1"/>
<path fill-rule="evenodd" clip-rule="evenodd" d="M52.2779 290.149C52.2779 290.149 54.4191 291.327 59.0555 291.327C65.2713 291.327 67.4845 289.664 67.4845 289.664C67.4845 289.664 68.0981 290.787 66.8516 291.845C65.8372 292.707 63.1757 293.449 59.301 293.405C55.0642 293.356 53.3409 292.835 52.4178 292.227C51.5749 291.673 51.7159 290.634 52.2779 290.149Z" fill="#2B0849"/>
<path fill-rule="evenodd" clip-rule="evenodd" d="M59.371 274.541C59.371 274.541 59.4055 276.07 59.0515 277.492C58.6944 278.923 57.9489 280.62 57.8962 281.663C57.8373 282.824 62.5316 283.256 63.1645 281.698C63.7964 280.139 64.4862 275.221 65.1191 274.39C65.75 273.558 60.1084 272.254 59.371 274.54" fill="#A4AABA"/>
<path fill-rule="evenodd" clip-rule="evenodd" d="M102.329 277.119L115.826 277.211C115.826 277.211 117.135 222.962 117.695 213.131C118.255 203.299 121.505 169.985 118.706 150.319L106.048 149.679L82.9974 150.455C82.9974 150.455 82.5582 154.401 81.7904 160.38C81.7275 160.873 81.1037 161.218 81.0358 161.739C80.9597 162.321 81.4618 163.086 81.3583 163.695C78.9747 177.703 74.9245 196.634 72.5368 210.138C72.4191 210.801 71.2922 211.142 71.066 212.816C71.0255 213.116 71.2791 214.332 71.1796 214.601C64.2458 233.251 60.1337 262.203 56.7764 276.175L71.5123 276.161C71.5123 276.161 73.7286 267.634 75.5777 259.277C78.4137 246.455 98.8938 174.692 98.8938 174.692L101.937 174.175L102.989 220.292C102.989 220.292 102.762 221.521 103.327 222.301C103.893 223.083 102.763 223.419 102.932 224.535L103.327 226.32C103.327 226.32 102.875 233.462 102.423 238.15C101.97 242.837 102.329 277.119 102.329 277.119Z" fill="url(#paint0_linear_192416_41849)"/>
<path fill-rule="evenodd" clip-rule="evenodd" d="M119.057 147.478C119.057 147.478 101.86 144.39 82.8463 147.677C83.0056 150.179 82.8443 151.807 82.8443 151.807C82.8443 151.807 97.6604 149.004 118.828 151.497C119.083 149.154 119.057 147.478 119.057 147.478Z" fill="#192064"/>
<path fill-rule="evenodd" clip-rule="evenodd" d="M109.05 150.409L109.054 145.522C109.055 145.313 108.974 145.112 108.827 144.961C108.681 144.81 108.481 144.721 108.269 144.712C105.806 144.62 103.157 144.604 100.363 144.698C100.15 144.706 99.9479 144.795 99.7997 144.946C99.6515 145.097 99.5682 145.298 99.5673 145.508L99.5643 150.39C99.5643 150.846 99.9406 151.211 100.403 151.199C103.002 151.134 105.602 151.14 108.201 151.216C108.311 151.219 108.42 151.201 108.523 151.162C108.626 151.123 108.719 151.065 108.798 150.989C108.878 150.914 108.941 150.824 108.984 150.724C109.027 150.625 109.05 150.518 109.05 150.409Z" fill="white"/>
<path fill-rule="evenodd" clip-rule="evenodd" d="M107.925 149.482L107.927 146.421C107.928 146.255 107.864 146.094 107.747 145.974C107.63 145.854 107.471 145.784 107.302 145.778C105.331 145.714 103.357 145.711 101.385 145.769C101.215 145.774 101.054 145.844 100.936 145.964C100.818 146.084 100.751 146.244 100.75 146.412L100.749 149.469C100.749 149.829 101.044 150.117 101.409 150.109C103.215 150.069 105.17 150.068 107.254 150.121C107.619 150.13 107.925 149.842 107.925 149.481" fill="#192064"/>
<path d="M109.09 224.015C109.09 224.015 111.887 222.911 115.246 220.151M78.5466 220.517C79.709 220.611 82.6201 218.508 85.5616 215.605L78.5466 220.517Z" stroke="#51258F" stroke-width="1.051" stroke-linecap="round" stroke-linejoin="round"/>
<path d="M110.012 220.988C110.012 220.988 112.81 219.883 116.169 217.123" stroke="#51258F" stroke-linecap="round" stroke-linejoin="round"/>
<path d="M58.4043 273.042H71.8318M77.1884 223.641C77.1884 223.641 79.8338 223.053 83.751 220.293L77.1884 223.641ZM88.5802 150.876C88.3063 153.966 88.8815 159.358 84.2034 159.953L88.5802 150.876ZM106.33 149.131C106.33 149.131 106.441 163.072 105.025 164.119C102.787 165.775 102.008 166.054 102.008 166.054L106.33 149.131ZM102.46 149.686C102.46 149.686 102.496 162.501 101.253 173.94L102.46 149.686ZM96.289 175.03C96.289 175.03 103.566 173.375 105.803 173.375L96.289 175.03ZM76.7543 204.831C76.4338 206.381 76.1051 207.899 75.7674 209.367C75.7674 209.367 74.2966 211.19 74.75 213.125C75.2024 215.059 73.7935 215.16 69.719 228.403C68.0089 233.965 65.1911 246.9 63.3156 255.861C63.2365 256.241 59.2401 273.928 59.164 274.291L76.7543 204.831ZM78.1459 196.817C77.8617 198.396 77.5652 199.973 77.2564 201.547L78.1459 196.817ZM85.1092 151.471L83.9022 161.888C83.9022 161.888 82.7956 162.036 83.3991 164.118C83.5117 165.459 80.701 179.816 78.1723 194.397L85.1092 151.471Z" stroke="#51258F" stroke-width="1.051" stroke-linecap="round" stroke-linejoin="round"/>
<path d="M103.667 174.089L104.573 218.508C104.573 218.508 105.252 220.069 104.346 221.186C103.441 222.302 106.836 221.856 105.252 223.418C103.667 224.98 106.157 224.534 105.252 226.766C104.651 228.246 104.25 247.761 104.146 261.735M102.938 274.036H115.386H102.938ZM104.122 269.176C104.128 272.545 104.162 274.937 104.233 275.648L104.122 269.176ZM104.137 263.223C104.128 264.754 104.122 266.205 104.121 267.538L104.137 263.223Z" stroke="#51258F" stroke-width="1.051" stroke-linecap="round" stroke-linejoin="round"/>
<defs>
<linearGradient id="paint0_linear_192416_41849" x1="119.828" y1="277.211" x2="56.7764" y2="277.211" gradientUnits="userSpaceOnUse">
<stop stop-color="#3E2069"/>
<stop offset="0.296875" stop-color="#6F3CA2"/>
<stop offset="0.682292" stop-color="#5745C1"/>
<stop offset="1" stop-color="#642AB5"/>
</linearGradient>
</defs>
</svg>
