<svg width="21" height="20" viewBox="0 0 21 20" fill="none" xmlns="http://www.w3.org/2000/svg">
<path fill-rule="evenodd" clip-rule="evenodd" d="M10.8794 2C6.46112 2 2.87939 5.58172 2.87939 10C2.87939 14.4183 6.46112 18 10.8794 18C15.2977 18 18.8794 14.4183 18.8794 10C18.8794 5.58172 15.2977 2 10.8794 2ZM0.879395 10C0.879395 4.47715 5.35655 0 10.8794 0C16.4022 0 20.8794 4.47715 20.8794 10C20.8794 15.5228 16.4022 20 10.8794 20C5.35655 20 0.879395 15.5228 0.879395 10ZM9.87939 6C9.87939 5.44772 10.3271 5 10.8794 5H10.8894C11.4417 5 11.8894 5.44772 11.8894 6C11.8894 6.55228 11.4417 7 10.8894 7H10.8794C10.3271 7 9.87939 6.55228 9.87939 6ZM8.87939 10C8.87939 9.44771 9.32711 9 9.87939 9H10.8794C11.4317 9 11.8794 9.44771 11.8794 10V13C12.4317 13 12.8794 13.4477 12.8794 14C12.8794 14.5523 12.4317 15 11.8794 15H10.8794C10.3271 15 9.87939 14.5523 9.87939 14V11C9.32711 11 8.87939 10.5523 8.87939 10Z" fill="#7C3AED"/>
</svg>
