<svg width="25" height="24" viewBox="0 0 25 24" fill="none" xmlns="http://www.w3.org/2000/svg">
<path d="M0.262006 20.9433C2.22683 21.8468 4.1844 22.766 6.1468 23.675C6.25 23.7227 6.37638 23.74 6.49199 23.7403C7.98305 23.7446 9.47411 23.7376 10.9653 23.7485C11.2148 23.7503 11.2744 23.6692 11.2726 23.4353C11.2626 22.1432 11.2681 20.851 11.267 19.5589C11.267 19.4901 11.255 19.4215 11.245 19.3152C11.1282 19.3682 11.0402 19.4107 10.9505 19.4486C9.57643 20.0302 8.18284 20.5207 6.64749 20.3267C6.05076 20.2512 5.51139 20.0423 5.07082 19.6237C4.30155 18.8928 4.06505 17.9417 4.04703 16.9476C4.03208 16.1182 4.10901 15.2824 4.20946 14.4571C4.32792 13.4838 4.57805 12.536 4.99774 11.6399C6.14098 9.19793 7.78128 7.1107 9.74215 5.27052C10.3901 4.66234 11.1564 4.17736 11.8678 3.63502C12.0436 3.50096 12.2126 3.49857 12.3935 3.631C12.9609 4.04689 13.5629 4.42224 14.0951 4.87778C15.478 6.06122 16.6545 7.43445 17.6928 8.91926C18.7323 10.4058 19.6122 11.9707 19.9468 13.78C20.1914 15.1021 20.391 16.4276 20.1333 17.7704C19.7867 19.5761 18.7145 20.3342 17.0608 20.3789C16.2487 20.4009 15.4575 20.2258 14.6911 19.9671C14.1386 19.7805 13.5978 19.5605 13.0207 19.3439C13.0168 19.422 13.012 19.4756 13.012 19.5292C13.0115 20.8214 13.0211 22.1135 13.0042 23.4055C13.0004 23.6956 13.0991 23.7509 13.3669 23.7487C14.812 23.737 16.2571 23.7476 17.7021 23.7376C17.8874 23.7363 18.0867 23.6902 18.255 23.6127C20.152 22.7379 22.0443 21.8524 23.9382 20.9705C24.3229 20.7915 24.3218 20.7931 24.2173 20.3894C23.1612 16.3038 22.1066 12.2179 21.0452 8.13346C21.0088 7.99298 20.9306 7.84262 20.8265 7.74321C20.3971 7.33298 19.9508 6.9397 19.509 6.54207C18.6729 5.78961 17.8368 5.03727 16.9988 4.28709C15.8815 3.28693 14.7617 2.28927 13.6441 1.28966C13.2009 0.893442 12.7576 0.497333 12.3196 0.0955746C12.1739 -0.0380551 12.067 -0.0312116 11.9281 0.113934C11.7453 0.304818 11.5362 0.470715 11.3392 0.648236C10.4631 1.43817 9.58873 2.22996 8.71089 3.01794C7.77853 3.85481 6.8442 4.68907 5.90899 5.52268C5.22654 6.13107 4.5342 6.72904 3.86087 7.34711C3.59162 7.59427 3.28721 7.8047 3.18413 8.2094C2.14309 12.2894 1.08853 16.366 0.0279279 20.4412C-0.0404271 20.7038 0.0090259 20.827 0.262006 20.9433Z" fill="#F7A824"/>
</svg>
