<svg width="21" height="21" viewBox="0 0 21 21" fill="none" xmlns="http://www.w3.org/2000/svg">
<path fill-rule="evenodd" clip-rule="evenodd" d="M10.7632 5.01934L5.41445 10.5112C3.78727 12.1383 3.78721 14.7765 5.4144 16.4037C7.04158 18.0308 9.67977 18.0308 11.307 16.4037L11.3076 16.403L16.5221 11.2008C16.8479 10.8757 17.3756 10.8763 17.7006 11.2022C18.0257 11.528 18.0251 12.0556 17.6992 12.3807L12.4855 17.5822C12.4853 17.5823 12.4856 17.582 12.4855 17.5822C10.2074 19.8599 6.51382 19.8601 4.23589 17.5822C1.95918 15.3055 1.95783 11.615 4.23184 9.33664L9.58101 3.84439C11.2082 2.2172 13.8464 2.21725 15.4736 3.84444C17.0994 5.47026 17.1008 8.10539 15.4777 9.7329L10.1285 15.2252C9.15218 16.2015 7.56922 16.2015 6.59291 15.2251C5.6166 14.2488 5.6166 12.6659 6.59291 11.6896L12.0811 6.20146C12.4065 5.87602 12.9341 5.87602 13.2596 6.20146C13.585 6.5269 13.585 7.05453 13.2596 7.37997L7.77142 12.8681C7.44598 13.1936 7.44598 13.7212 7.77142 14.0466C8.09578 14.371 8.621 14.3721 8.94669 14.0499L14.2951 8.55843C15.2714 7.58212 15.2714 5.99926 14.2951 5.02295C13.32 4.04784 11.7398 4.04664 10.7632 5.01934Z" fill="#9CA3AF"/>
</svg>
